<svg width="17" height="16" viewBox="0 0 17 16" fill="none" xmlns="http://www.w3.org/2000/svg">
<path d="M14.0311 6.35402L8.93919 11.3532C8.8919 11.3997 8.83608 11.4365 8.77492 11.4617C8.71376 11.4868 8.64845 11.4998 8.58275 11.4998C8.51704 11.4998 8.45221 11.4868 8.39198 11.4617C8.33174 11.4365 8.27728 11.3997 8.23169 11.3532L3.32365 6.35402C3.23155 6.26022 3.18118 6.13299 3.18362 6.00033C3.18606 5.86768 3.24111 5.74045 3.33666 5.64664C3.4322 5.55284 3.56042 5.50014 3.6931 5.50014C3.82579 5.50014 3.95206 5.55284 4.04416 5.64664L8.60495 10.2927L13.3367 5.64664C13.384 5.6002 13.4398 5.56335 13.501 5.53822C13.5621 5.51308 13.6274 5.50014 13.6931 5.50014C13.7588 5.50014 13.8236 5.51308 13.8839 5.53822C13.9441 5.56335 13.9986 5.6002 14.0442 5.64664C14.0898 5.69309 14.1256 5.74823 14.1496 5.80892C14.1736 5.8696 14.1854 5.93465 14.1842 6.00033C14.183 6.06602 14.1688 6.13106 14.1426 6.19175C14.1163 6.25244 14.0785 6.30758 14.0311 6.35402Z" fill="#F7F7F7"/>
</svg>
