<svg width="24" height="24" viewBox="0 0 24 24" fill="none" xmlns="http://www.w3.org/2000/svg">
<path d="M12.0442 13.0161L12 12.9719L11.9558 13.0161L5.73643 19.2364C5.60743 19.3654 5.43245 19.4379 5.25 19.4379C5.06756 19.4379 4.89258 19.3654 4.76357 19.2364C4.63456 19.1074 4.56209 18.9324 4.56209 18.75C4.56209 18.5675 4.63456 18.3926 4.76357 18.2636L10.9839 12.0442L11.0281 12L10.9839 11.9558L4.76357 5.73643C4.76357 5.73643 4.76357 5.73643 4.76357 5.73642C4.63456 5.60742 4.56209 5.43244 4.56209 5.25C4.56209 5.06755 4.63456 4.89258 4.76357 4.76357C4.89258 4.63456 5.06756 4.56208 5.25 4.56208C5.43245 4.56208 5.60742 4.63456 5.73643 4.76356C5.73643 4.76356 5.73643 4.76357 5.73644 4.76357L11.9558 10.9839L12 11.0281L12.0442 10.9839L18.2636 4.76356C18.3926 4.63456 18.5676 4.56208 18.75 4.56208C18.9325 4.56208 19.1074 4.63456 19.2364 4.76357C19.3654 4.89258 19.4379 5.06755 19.4379 5.25C19.4379 5.43244 19.3654 5.60742 19.2364 5.73643L13.0161 11.9558L12.9719 12L13.0161 12.0442L19.2364 18.2636C19.3003 18.3274 19.351 18.4033 19.3856 18.4867C19.4201 18.5702 19.4379 18.6597 19.4379 18.75C19.4379 18.8403 19.4201 18.9298 19.3856 19.0133C19.351 19.0967 19.3003 19.1725 19.2364 19.2364C19.1726 19.3003 19.0967 19.351 19.0133 19.3855C18.9298 19.4201 18.8403 19.4379 18.75 19.4379C18.6597 19.4379 18.5702 19.4201 18.4868 19.3855C18.4033 19.351 18.3275 19.3003 18.2636 19.2364L12.0442 13.0161Z" fill="currentColor" stroke="#1EE385" stroke-width="0.125"/>
</svg>
