<svg width="18" height="16" viewBox="0 0 18 16" fill="none" xmlns="http://www.w3.org/2000/svg">
<path d="M13.4375 11.75V11.8125H13.5H17.25C17.4323 11.8125 17.6072 11.8849 17.7361 12.0139C17.8651 12.1428 17.9375 12.3177 17.9375 12.5C17.9375 12.6823 17.8651 12.8572 17.7361 12.9861C17.6072 13.1151 17.4323 13.1875 17.25 13.1875H13.5H13.4375V13.25V14.75C13.4375 14.9323 13.3651 15.1072 13.2361 15.2361C13.1072 15.3651 12.9323 15.4375 12.75 15.4375C12.5677 15.4375 12.3928 15.3651 12.2639 15.2361C12.1349 15.1072 12.0625 14.9323 12.0625 14.75V10.25C12.0625 10.0677 12.1349 9.89279 12.2639 9.76386C12.3928 9.63493 12.5677 9.5625 12.75 9.5625C12.9323 9.5625 13.1072 9.63493 13.2361 9.76386C13.3651 9.89279 13.4375 10.0677 13.4375 10.25V11.75ZM7.5 4.1875H7.4375V4.25V5.75C7.4375 5.93234 7.36507 6.1072 7.23614 6.23614C7.1072 6.36507 6.93234 6.4375 6.75 6.4375C6.56766 6.4375 6.3928 6.36507 6.26386 6.23614C6.13493 6.1072 6.0625 5.93234 6.0625 5.75V1.25C6.0625 1.06766 6.13493 0.892796 6.26386 0.763864C6.3928 0.634933 6.56766 0.5625 6.75 0.5625C6.93234 0.5625 7.1072 0.634933 7.23614 0.763864C7.36507 0.892796 7.4375 1.06766 7.4375 1.25V2.75V2.8125H7.5H17.25C17.4323 2.8125 17.6072 2.88493 17.7361 3.01386C17.8651 3.1428 17.9375 3.31766 17.9375 3.5C17.9375 3.68234 17.8651 3.8572 17.7361 3.98614C17.6072 4.11507 17.4323 4.1875 17.25 4.1875H7.5ZM0.0625 3.5C0.0625 3.31766 0.134933 3.1428 0.263864 3.01386C0.392796 2.88493 0.567664 2.8125 0.75 2.8125H3.75C3.93234 2.8125 4.1072 2.88493 4.23614 3.01386C4.36507 3.1428 4.4375 3.31766 4.4375 3.5C4.4375 3.68234 4.36507 3.8572 4.23614 3.98614C4.1072 4.11507 3.93234 4.1875 3.75 4.1875H0.75C0.567664 4.1875 0.392796 4.11507 0.263864 3.98614C0.134933 3.8572 0.0625 3.68234 0.0625 3.5ZM0.75 11.8125H9.75C9.93234 11.8125 10.1072 11.8849 10.2361 12.0139C10.3651 12.1428 10.4375 12.3177 10.4375 12.5C10.4375 12.6823 10.3651 12.8572 10.2361 12.9861C10.1072 13.1151 9.93234 13.1875 9.75 13.1875H0.75C0.567663 13.1875 0.392795 13.1151 0.263864 12.9861C0.134933 12.8572 0.0625 12.6823 0.0625 12.5C0.0625 12.3177 0.134933 12.1428 0.263864 12.0139C0.392795 11.8849 0.567663 11.8125 0.75 11.8125Z" fill="currentColor" stroke="#currentColor" stroke-width="0.125"/>
</svg>
