<svg width="21" height="20" viewBox="0 0 21 20" fill="none" xmlns="http://www.w3.org/2000/svg">
<path d="M11.3803 0.255671C11.1731 0.237604 10.9645 0.262817 10.7675 0.329711C10.5706 0.396604 10.3898 0.503715 10.2365 0.644243C10.0831 0.78477 9.96073 0.955642 9.87699 1.14601C9.79324 1.33637 9.75 1.54208 9.75001 1.75005V5.56286C9.74742 5.91665 9.87107 6.25978 10.0988 6.53059C10.3264 6.8014 10.6432 6.98214 10.9922 7.04036C11.5498 7.13391 12.0696 7.38312 12.4917 7.75926C12.9138 8.13541 13.221 8.62317 13.3779 9.16634C13.5349 9.70951 13.5351 10.286 13.3786 10.8293C13.2222 11.3726 12.9154 11.8606 12.4936 12.2371C12.0718 12.6136 11.5522 12.8632 10.9947 12.9572C10.4372 13.0513 9.86443 12.9858 9.34249 12.7685C8.82056 12.5511 8.37067 12.1907 8.04469 11.7287C7.7187 11.2668 7.52989 10.7221 7.50001 10.1575C7.46157 9.38692 7.61907 8.7513 7.96876 8.25817C8.17428 7.97149 8.27118 7.62107 8.24216 7.26953C8.21313 6.91798 8.06007 6.58821 7.81032 6.33911L5.22095 3.6888C5.07335 3.54119 4.89657 3.42602 4.70192 3.35065C4.50727 3.27527 4.29902 3.24135 4.09051 3.25106C3.882 3.26076 3.67781 3.31388 3.491 3.40701C3.30419 3.50015 3.13888 3.63125 3.00563 3.79192C1.4428 5.66503 0.64206 8.05766 0.762607 10.4941C0.883155 12.9306 1.91616 15.2325 3.65626 16.9422C5.47575 18.7474 7.93697 19.7572 10.5 19.75H10.6397C13.1752 19.7069 15.5948 18.6804 17.3878 16.8872C19.1808 15.094 20.2071 12.6743 20.25 10.1388C20.3203 5.04817 16.4241 0.707546 11.3803 0.255671ZM4.15501 4.74442L6.74345 7.38723V7.39286C6.35923 7.94424 6.11795 8.58239 6.04126 9.25005H2.28376C2.43396 7.59262 3.08684 6.02061 4.15501 4.74442ZM2.2847 10.75H6.06282C6.21836 11.6716 6.65694 12.5218 7.31768 13.1827C7.97842 13.8436 8.82854 14.2824 9.75001 14.4382V18.2163C7.82911 18.0408 6.03043 17.1978 4.66658 15.8338C3.30273 14.4698 2.45994 12.671 2.2847 10.75ZM16.3256 15.8257C14.9671 17.1936 13.17 18.0391 11.25 18.2135V14.4382C12.1192 14.2935 12.9259 13.8945 13.5684 13.2916C14.1827 12.7193 14.6246 11.9866 14.8442 11.1763C15.0639 10.366 15.0524 9.51045 14.8112 8.70631C14.57 7.90217 14.1087 7.18154 13.4794 6.62587C12.85 6.07021 12.0778 5.70167 11.25 5.56192V1.75005C15.5175 2.13255 18.8128 5.80755 18.75 10.1172C18.7205 12.2641 17.8501 14.3137 16.3256 15.8257Z" fill="#099CCA"/>
</svg>
