<svg width="269" height="43" viewBox="0 0 269 43" fill="none" xmlns="http://www.w3.org/2000/svg">
<path d="M22.4222 0H16.1222L0.222168 37.5H6.52217L9.92217 43H28.9222L32.2222 37.5H6.52217L16.7222 13.6C16.9222 13.2 17.1222 12.5 17.4222 11.7C17.7222 10.9 18.0222 10 18.4222 9C18.7222 8.1 19.0222 7.3 19.3222 6.5C19.6222 7.3 19.9222 8.2 20.2222 9C20.6222 10 20.9222 10.9 21.2222 11.7C21.5222 12.5 21.7222 13.2 21.9222 13.6L32.1222 37.5H38.4222L22.5222 0H22.4222Z" fill="#191B23"/>
<path d="M163.322 0H157.022L141.122 37.5H147.422L157.622 13.6C157.822 13.2 158.022 12.5 158.322 11.7C158.622 10.9 158.922 10 159.322 9C159.622 8.1 159.922 7.3 160.222 6.5C160.522 7.3 160.822 8.2 161.122 9C161.522 10 161.822 10.9 162.122 11.7C162.422 12.5 162.622 13.2 162.822 13.6L173.022 37.5H179.322L163.422 0H163.322Z" fill="#191B23"/>
<path d="M252.922 0H246.522L230.622 37.5H236.922L247.122 13.6C247.322 13.2 247.522 12.5 247.822 11.7C248.122 10.9 248.422 10 248.822 9C249.122 8.1 249.422 7.3 249.722 6.5C250.022 7.3 250.322 8.2 250.622 9C251.022 10 251.322 10.9 251.622 11.7C251.922 12.5 252.122 13.2 252.322 13.6L262.522 37.5H268.822L252.922 0Z" fill="#191B23"/>
<path d="M72.4221 21.9C74.3221 20.8 75.8221 19.4 76.9221 17.6C78.0221 15.8 78.6221 13.9 78.6221 11.8C78.6221 9.7 78.1221 7.6 77.0221 5.8C75.9221 4 74.5221 2.6 72.7221 1.6C70.9221 0.599998 68.9221 0 66.7221 0H48.4221V37.5H54.2221V23.5H64.4221L73.3221 37.5H80.4221L70.7221 22.7C71.3221 22.5 71.8221 22.2 72.3221 21.9H72.4221ZM54.1221 5.6H65.4221C66.8221 5.6 68.0221 5.9 69.1221 6.4C70.2221 6.9 71.0221 7.7 71.7221 8.6C72.3221 9.5 72.6221 10.6 72.6221 11.8C72.6221 13 72.3221 14 71.8221 14.9C71.2221 15.8 70.5221 16.6 69.5221 17.2C68.6221 17.8 67.5221 18 66.3221 18H54.1221V5.6Z" fill="#191B23"/>
<path d="M111.822 20L98.0221 0H92.3221V37.5H98.1221V21.9C98.1221 18.6 98.1221 15.7 97.9221 13.2C97.9221 11.9 97.7221 10.6 97.6221 9.3L110.022 26.8H113.522L126.022 9.4C125.922 10.8 125.722 12.1 125.722 13.5C125.522 16.1 125.522 18.9 125.522 22.1V37.7H131.322V0.200001H125.822L111.822 20.2V20Z" fill="#191B23"/>
<path d="M219.522 5.4C217.922 3.7 215.922 2.4 213.522 1.4C211.222 0.499998 208.522 0 205.522 0H189.122V37.5H205.522C208.522 37.5 211.122 37 213.522 36.1C215.922 35.2 217.922 33.9 219.522 32.2C221.122 30.5 222.422 28.5 223.222 26.2C224.122 23.9 224.522 21.4 224.522 18.7C224.522 16 224.122 13.5 223.222 11.3C222.322 9 221.122 7 219.422 5.3L219.522 5.4ZM217.722 24.1C217.122 25.7 216.322 27.1 215.222 28.3C214.122 29.5 212.722 30.4 211.122 31C209.422 31.6 207.522 32 205.322 32H195.022V5.6H205.322C207.522 5.6 209.422 5.9 211.022 6.6C212.622 7.2 214.022 8.2 215.122 9.3C216.222 10.5 217.022 11.9 217.622 13.5C218.222 15.1 218.522 16.9 218.522 18.8C218.522 20.7 218.222 22.6 217.622 24.2L217.722 24.1Z" fill="#191B23"/>
</svg>
